<svg id="visual" viewBox="0 0 1400 2600" width="1400" height="2600" xmlns="http://www.w3.org/2000/svg" xmlns:xlink="http://www.w3.org/1999/xlink" version="1.1"><path d="M1212 2600L1208.5 2538.2C1205 2476.3 1198 2352.7 1200.5 2228.8C1203 2105 1215 1981 1220.8 1857.2C1226.7 1733.3 1226.3 1609.7 1225 1485.8C1223.7 1362 1221.3 1238 1224 1114.2C1226.7 990.3 1234.3 866.7 1232.7 742.8C1231 619 1220 495 1218.2 371.2C1216.3 247.3 1223.7 123.7 1227.3 61.8L1231 0L1400 0L1400 61.8C1400 123.7 1400 247.3 1400 371.2C1400 495 1400 619 1400 742.8C1400 866.7 1400 990.3 1400 1114.2C1400 1238 1400 1362 1400 1485.8C1400 1609.7 1400 1733.3 1400 1857.2C1400 1981 1400 2105 1400 2228.8C1400 2352.7 1400 2476.3 1400 2538.2L1400 2600Z" fill="#204770"></path><path d="M1251 2600L1254.5 2538.2C1258 2476.3 1265 2352.7 1264.3 2228.8C1263.7 2105 1255.3 1981 1255.2 1857.2C1255 1733.3 1263 1609.7 1264.5 1485.8C1266 1362 1261 1238 1257.3 1114.2C1253.7 990.3 1251.3 866.7 1247 742.8C1242.7 619 1236.3 495 1233.3 371.2C1230.3 247.3 1230.7 123.7 1230.8 61.8L1231 0L1400 0L1400 61.8C1400 123.7 1400 247.3 1400 371.2C1400 495 1400 619 1400 742.8C1400 866.7 1400 990.3 1400 1114.2C1400 1238 1400 1362 1400 1485.8C1400 1609.7 1400 1733.3 1400 1857.2C1400 1981 1400 2105 1400 2228.8C1400 2352.7 1400 2476.3 1400 2538.2L1400 2600Z" fill="#3d6692"></path><path d="M1288 2600L1290.2 2538.2C1292.3 2476.3 1296.7 2352.7 1298.8 2228.8C1301 2105 1301 1981 1300.5 1857.2C1300 1733.3 1299 1609.7 1298.5 1485.8C1298 1362 1298 1238 1295.3 1114.2C1292.7 990.3 1287.3 866.7 1283.5 742.8C1279.7 619 1277.3 495 1280.8 371.2C1284.3 247.3 1293.7 123.7 1298.3 61.8L1303 0L1400 0L1400 61.8C1400 123.7 1400 247.3 1400 371.2C1400 495 1400 619 1400 742.8C1400 866.7 1400 990.3 1400 1114.2C1400 1238 1400 1362 1400 1485.8C1400 1609.7 1400 1733.3 1400 1857.2C1400 1981 1400 2105 1400 2228.8C1400 2352.7 1400 2476.3 1400 2538.2L1400 2600Z" fill="#5987b5"></path><path d="M1322 2600L1321 2538.2C1320 2476.3 1318 2352.7 1315.2 2228.8C1312.3 2105 1308.7 1981 1307.7 1857.2C1306.7 1733.3 1308.3 1609.7 1310.8 1485.8C1313.3 1362 1316.7 1238 1320.7 1114.2C1324.7 990.3 1329.3 866.7 1327.7 742.8C1326 619 1318 495 1316.5 371.2C1315 247.3 1320 123.7 1322.5 61.8L1325 0L1400 0L1400 61.8C1400 123.7 1400 247.3 1400 371.2C1400 495 1400 619 1400 742.8C1400 866.7 1400 990.3 1400 1114.2C1400 1238 1400 1362 1400 1485.8C1400 1609.7 1400 1733.3 1400 1857.2C1400 1981 1400 2105 1400 2228.8C1400 2352.7 1400 2476.3 1400 2538.2L1400 2600Z" fill="#76aada"></path><path d="M1341 2600L1344.8 2538.2C1348.7 2476.3 1356.3 2352.7 1359.8 2228.8C1363.3 2105 1362.7 1981 1362.3 1857.2C1362 1733.3 1362 1609.7 1359.7 1485.8C1357.3 1362 1352.7 1238 1352.8 1114.2C1353 990.3 1358 866.7 1358 742.8C1358 619 1353 495 1353.7 371.2C1354.3 247.3 1360.7 123.7 1363.8 61.8L1367 0L1400 0L1400 61.8C1400 123.7 1400 247.3 1400 371.2C1400 495 1400 619 1400 742.8C1400 866.7 1400 990.3 1400 1114.2C1400 1238 1400 1362 1400 1485.8C1400 1609.7 1400 1733.3 1400 1857.2C1400 1981 1400 2105 1400 2228.8C1400 2352.7 1400 2476.3 1400 2538.2L1400 2600Z" fill="#94ceff"></path></svg>